<?xml version="1.0" encoding="iso-8859-1"?>
<!-- Generator: Adobe Illustrator 19.0.0, SVG Export Plug-In . SVG Version: 6.00 Build 0)  -->
<svg version="1.1" id="Capa_1" xmlns="http://www.w3.org/2000/svg" xmlns:xlink="http://www.w3.org/1999/xlink" x="0px" y="0px"
	 viewBox="0 0 512 512" style="enable-background:new 0 0 512 512;" xml:space="preserve">
<g>
	<g>
		<path d="M508.757,215.146c-0.655-4.086-4.507-6.863-8.585-6.211c-4.086,0.655-6.867,4.5-6.211,8.586
			c2.026,12.632,3.054,25.578,3.054,38.48c0,64.377-25.07,124.901-70.592,170.423c-45.522,45.522-106.046,70.592-170.423,70.592
			s-124.901-25.071-170.424-70.593C40.055,380.901,14.986,320.378,14.986,256s25.07-124.901,70.592-170.423
			C131.099,40.055,191.623,14.986,256,14.986c50.556,0,98.948,15.48,139.942,44.766c40.124,28.664,70.143,68.217,86.814,114.381
			c1.405,3.891,5.701,5.906,9.593,4.502c3.892-1.405,5.908-5.699,4.503-9.593c-17.708-49.035-49.589-91.044-92.198-121.484
			C361.103,16.445,309.699,0,256,0C187.62,0,123.333,26.628,74.981,74.981S0,187.62,0,256s26.628,132.667,74.981,181.019
			C123.332,485.371,187.62,512,256,512s132.667-26.628,181.019-74.981S512,324.38,512,256
			C512,242.306,510.909,228.56,508.757,215.146z"/>
	</g>
</g>
<g>
	<g>
		<path d="M466.745,212.789c0-0.001,0-0.002,0-0.002c-15.005-73.526-68.35-134.715-139.221-159.691
			c-0.003-0.001-0.005-0.002-0.008-0.003c-22.923-8.082-46.984-12.179-71.515-12.179c-51.666,0-101.619,18.594-140.657,52.359
			c-0.001,0-0.001,0.001-0.002,0.002c-47.3,40.925-74.429,100.236-74.429,162.727c0,15.119,1.577,30.212,4.687,44.858v0.002
			c15.529,73.207,69.17,133.917,139.99,158.433c0.016,0.005,0.032,0.007,0.048,0.012c0.014,0.005,0.028,0.011,0.042,0.016
			c22.547,7.807,46.205,11.766,70.32,11.766c52.37,0,102.834-19.043,142.095-53.619c0.067-0.059,0.128-0.124,0.192-0.185
			c0.039-0.033,0.081-0.062,0.119-0.096c46.189-40.825,72.681-99.576,72.681-161.188
			C471.087,241.473,469.627,226.934,466.745,212.789z M328.292,69.356c60.195,23.34,105.897,75.037,121.713,137.435H276.109H247.08
			L328.292,69.356z M292.176,255.957l-20.603,35.854h-28.395v0.001l-23.195-39.165l18.241-30.87h33.623L292.176,255.957z
			 M55.898,256c0-55.13,22.708-107.59,62.582-145.338l22.593,38.148c2.109,3.56,6.705,4.739,10.265,2.629
			c3.561-2.108,4.737-6.705,2.628-10.264l-24.033-40.581C165.501,71.727,210.019,55.899,256,55.899
			c19.742,0,39.152,2.85,57.827,8.481l-0.529,0.894l-85.808,145.2c-0.019,0.031-0.031,0.065-0.049,0.097l-16.17,27.366
			l-34.313-57.937c-2.108-3.56-6.703-4.738-10.265-2.629c-3.561,2.108-4.737,6.705-2.628,10.264l36.207,61.138
			c0.001,0.002,0.002,0.004,0.003,0.006l25.486,43.034H59.093C56.971,280.06,55.898,268.041,55.898,256z M184.684,443.019
			c-60.102-22.944-106.013-74.176-122.28-136.221h176.496c0.005,0,0.01,0.001,0.015,0.001s0.01-0.001,0.015-0.001h24.032
			L184.684,443.019z M256,456.102c-19.398,0-38.471-2.749-56.827-8.184l83.43-144.873c0.262-0.455,0.457-0.934,0.615-1.422
			l17.674-30.757l82.59,139.376C347.679,439.859,302.652,456.102,256,456.102z M395.154,399.788L289.283,221.777h163.904
			c1.936,11.26,2.915,22.744,2.915,34.223C456.102,310.286,433.998,362.181,395.154,399.788z"/>
	</g>
</g>
<g>
</g>
<g>
</g>
<g>
</g>
<g>
</g>
<g>
</g>
<g>
</g>
<g>
</g>
<g>
</g>
<g>
</g>
<g>
</g>
<g>
</g>
<g>
</g>
<g>
</g>
<g>
</g>
<g>
</g>
</svg>
