<?xml version="1.0" encoding="iso-8859-1"?>
<!-- Generator: Adobe Illustrator 19.0.0, SVG Export Plug-In . SVG Version: 6.00 Build 0)  -->
<svg version="1.1" id="Capa_1" xmlns="http://www.w3.org/2000/svg" xmlns:xlink="http://www.w3.org/1999/xlink" x="0px" y="0px"
	 viewBox="0 0 512 512" style="enable-background:new 0 0 512 512;" xml:space="preserve">
<g>
	<g>
		<path d="M499.488,107.359H326.73C305.174,97.484,281.219,91.97,256,91.97c-25.22,0-49.174,5.513-70.729,15.388h-76.012V92.472
			c0-7.304-5.943-13.245-13.246-13.245H39.93c-7.304,0-13.245,5.943-13.245,13.245v14.886H12.512C5.612,107.358,0,112.97,0,119.87
			v285.003c0,6.899,5.612,12.512,12.512,12.512h45.305c4.146,0,7.507-3.361,7.507-7.507c0-4.146-3.361-7.507-7.507-7.507H15.014
			v-32.653h108.752c10.135,12.462,21.994,23.467,35.209,32.654h-53.448c-4.146,0-7.507,3.361-7.507,7.507
			c0,4.146,3.361,7.507,7.507,7.507h79.743c21.556,9.875,45.51,15.388,70.729,15.388c25.22,0,49.174-5.513,70.73-15.388h172.758
			c6.899,0,12.512-5.612,12.512-12.512V119.871C512,112.971,506.388,107.359,499.488,107.359z M496.987,122.372v32.654h-0.001
			h-10.036c-0.145-12.442-10.307-22.52-22.781-22.52h-24.986c-12.476,0-22.636,10.078-22.781,22.52h-28.165
			c-10.135-12.462-21.994-23.467-35.209-32.654H496.987z M471.941,155.295v6.715c0,4.287-3.487,7.774-7.774,7.774h-24.986
			c-4.286,0-7.774-3.487-7.774-7.774v-6.715c0-4.287,3.487-7.774,7.774-7.774h24.986
			C468.454,147.521,471.941,151.008,471.941,155.295z M41.697,94.241h52.546v13.117H41.697V94.241z M15.014,122.373h143.961
			c-13.215,9.187-25.074,20.191-35.209,32.654H15.014V122.373z M15.014,354.703V170.04h97.831
			c-17.23,26.622-27.248,58.328-27.248,92.332c0,34.004,10.017,65.71,27.248,92.332H15.014z M256,417.759
			c-85.682,0-155.388-69.706-155.388-155.388S170.318,106.984,256,106.984s155.388,69.706,155.388,155.388
			S341.681,417.759,256,417.759z M353.025,402.371c13.215-9.187,25.074-20.191,35.209-32.654h108.752v32.654H353.025z
			 M496.987,354.703h-0.001h-97.831c17.23-26.622,27.248-58.328,27.248-92.332c0-34.004-10.017-65.71-27.248-92.332h18.703
			c3.255,8.614,11.584,14.759,21.324,14.759h24.986c9.74,0,18.069-6.145,21.324-14.759h11.495V354.703z"/>
	</g>
</g>
<g>
	<g>
		<path d="M256,136.335c-19.201,0-37.64,4.209-54.805,12.51c-3.732,1.805-5.295,6.294-3.49,10.026
			c1.805,3.732,6.296,5.295,10.026,3.49c15.11-7.307,31.349-11.011,48.268-11.011c61.219,0,111.023,49.805,111.023,111.022
			c0,61.218-49.805,111.022-111.023,111.022S144.977,323.59,144.977,262.372c0-27.596,10.191-54.05,28.695-74.488
			c2.783-3.073,2.547-7.82-0.526-10.603c-3.074-2.784-7.821-2.547-10.603,0.526c-21.01,23.205-32.58,53.237-32.58,84.564
			c0,69.497,56.54,126.036,126.036,126.036c69.497,0,126.037-56.54,126.037-126.036S325.497,136.335,256,136.335z"/>
	</g>
</g>
<g>
</g>
<g>
</g>
<g>
</g>
<g>
</g>
<g>
</g>
<g>
</g>
<g>
</g>
<g>
</g>
<g>
</g>
<g>
</g>
<g>
</g>
<g>
</g>
<g>
</g>
<g>
</g>
<g>
</g>
</svg>
