<?xml version="1.0" encoding="iso-8859-1"?>
<!-- Generator: Adobe Illustrator 19.0.0, SVG Export Plug-In . SVG Version: 6.00 Build 0)  -->
<svg version="1.1" id="Capa_1" xmlns="http://www.w3.org/2000/svg" xmlns:xlink="http://www.w3.org/1999/xlink" x="0px" y="0px"
	 viewBox="0 0 512.001 512.001" style="enable-background:new 0 0 512.001 512.001;" xml:space="preserve">
<g>
	<g>
		<path d="M420.159,184.995c-2.138-4.409-6.557-7.079-11.404-6.96l-138.613,3.246l64.931-163.962
			c1.666-3.788,1.337-8.108-0.896-11.608C331.896,2.135,328.004,0,323.762,0h-131.8c-5.06,0-9.555,3.031-11.45,7.72l-53.076,131.177
			c-1.554,3.84,0.3,8.212,4.139,9.766c3.842,1.553,8.213-0.3,9.766-4.14L193.748,15h126.109L254.89,179.053
			c-1.69,3.841-1.334,8.207,0.972,11.73c2.354,3.599,6.295,5.695,10.627,5.587l136.815-3.204L158.353,489.14l28.553-119.067
			c0.966-4.028-1.517-8.076-5.544-9.042c-4.028-0.968-8.077,1.517-9.042,5.544l-31.147,129.886
			c-1.493,5.622,1.045,11.405,6.214,14.109c1.844,0.964,3.817,1.431,5.766,1.431c3.567,0,7.048-1.565,9.478-4.5l255.93-309.24
			C421.683,194.486,422.297,189.403,420.159,184.995z"/>
	</g>
</g>
<g>
	<g>
		<path d="M214.525,235.512c-2.355-3.105-5.942-4.886-9.773-4.885l-97.902-0.861l17.062-42.168c1.554-3.84-0.3-8.212-4.139-9.766
			c-3.841-1.553-8.212,0.3-9.766,4.14l-18.521,45.773c-1.544,3.814-1.092,8.127,1.208,11.539c2.299,3.411,6.128,5.448,10.176,5.447
			l98.462,0.866l-18.245,76.082c-0.966,4.028,1.516,8.076,5.544,9.042c0.588,0.141,1.176,0.208,1.755,0.208
			c3.389,0,6.463-2.313,7.287-5.753l18.953-79.034C217.609,242.437,216.848,238.572,214.525,235.512z"/>
	</g>
</g>
<g>
</g>
<g>
</g>
<g>
</g>
<g>
</g>
<g>
</g>
<g>
</g>
<g>
</g>
<g>
</g>
<g>
</g>
<g>
</g>
<g>
</g>
<g>
</g>
<g>
</g>
<g>
</g>
<g>
</g>
</svg>
