<?xml version="1.0" encoding="iso-8859-1"?>
<!-- Generator: Adobe Illustrator 19.0.0, SVG Export Plug-In . SVG Version: 6.00 Build 0)  -->
<svg version="1.1" id="Capa_1" xmlns="http://www.w3.org/2000/svg" xmlns:xlink="http://www.w3.org/1999/xlink" x="0px" y="0px"
	 viewBox="0 0 512 512" style="enable-background:new 0 0 512 512;" xml:space="preserve">
<g>
	<g>
		<path d="M71.709,412.514H48.224l-0.041-23.317c-0.014-7.71-6.297-13.982-14.006-13.982H14.007c-3.744,0-7.263,1.458-9.909,4.107
			c-2.647,2.648-4.101,6.169-4.098,9.919l0.011,6.315c0.007,4.139,3.364,7.489,7.502,7.489c0.004,0,0.009,0,0.013,0
			c4.143-0.007,7.496-3.372,7.489-7.515l-0.009-5.311H33.18l0.041,23.317c0.014,7.71,6.297,13.982,14.007,13.982h23.483v18.634
			H15.058l-0.003-3.602c-0.004-4.141-3.362-7.495-7.502-7.495c-0.002,0-0.005,0-0.007,0c-4.143,0.004-7.499,3.366-7.495,7.509
			l0.004,4.598c0.007,7.715,6.291,13.993,14.007,13.993h57.648c7.723,0,14.006-6.284,14.006-14.007v-20.627
			C85.715,418.797,79.433,412.514,71.709,412.514z"/>
	</g>
</g>
<g>
	<g>
		<path d="M507.902,379.323c-2.646-2.65-6.165-4.108-9.909-4.108h-20.169c-7.71,0-13.993,6.273-14.006,13.982l-0.041,23.317h-23.485
			c-7.723,0-14.006,6.284-14.006,14.007v20.629c0,7.723,6.283,14.007,14.006,14.007h57.648c7.716,0,14-6.278,14.007-13.994
			L512,389.236C512.003,385.491,510.549,381.97,507.902,379.323z M496.942,446.152h-55.654v-18.634h23.483
			c7.71,0,13.993-6.273,14.007-13.982l0.041-23.317h18.175L496.942,446.152z"/>
	</g>
</g>
<g>
	<g>
		<path d="M71.709,50.842H14.061c-7.716,0-14,6.278-14.007,13.994L0,122.764c-0.003,3.744,1.451,7.265,4.098,9.913
			c2.647,2.649,6.166,4.107,9.909,4.107h20.169c7.71,0,13.993-6.273,14.006-13.982l0.041-23.317h23.485
			c7.723,0,14.006-6.284,14.006-14.007V64.85C85.715,57.125,79.433,50.842,71.709,50.842z M70.712,84.481h-0.001H47.229
			c-7.71,0-13.993,6.273-14.007,13.982L33.18,121.78H15.006l0.052-55.933h55.654V84.481z"/>
	</g>
</g>
<g>
	<g>
		<path d="M511.946,64.837c-0.007-7.716-6.291-13.994-14.007-13.994h-57.648c-7.723,0-14.006,6.284-14.006,14.007v20.629
			c0,7.723,6.283,14.007,14.006,14.007h23.485l0.041,23.317c0.014,7.71,6.297,13.982,14.006,13.982h20.169
			c3.744,0,7.263-1.458,9.909-4.107c2.647-2.648,4.101-6.169,4.098-9.913L511.946,64.837z M478.82,121.78l-0.041-23.317
			c-0.014-7.71-6.297-13.982-14.007-13.982h-23.483V65.847h55.654l0.052,55.933H478.82z"/>
	</g>
</g>
<g>
	<g>
		<path d="M512,122.764L512,122.764L512,122.764z"/>
	</g>
</g>
<g>
	<g>
		<path d="M256,71.513c-4.143,0-7.502,3.359-7.502,7.502v43.086c0,4.143,3.359,7.502,7.502,7.502c4.143,0,7.502-3.359,7.502-7.502
			V79.015C263.502,74.872,260.143,71.513,256,71.513z"/>
	</g>
</g>
<g>
	<g>
		<path d="M256,382.396c-4.143,0-7.502,3.359-7.502,7.502v43.086c0,4.143,3.359,7.502,7.502,7.502s7.502-3.359,7.502-7.502v-43.086
			C263.502,385.755,260.143,382.396,256,382.396z"/>
	</g>
</g>
<g>
	<g>
		<path d="M495.333,248.497h-43.086c-4.143,0-7.502,3.359-7.502,7.502c0,4.143,3.359,7.502,7.502,7.502h43.086
			c4.143,0,7.502-3.359,7.502-7.502C502.835,251.856,499.476,248.497,495.333,248.497z"/>
	</g>
</g>
<g>
	<g>
		<path d="M59.753,248.497H16.667c-4.143,0-7.502,3.359-7.502,7.502c0,4.143,3.359,7.502,7.502,7.502h43.086
			c4.143,0,7.502-3.359,7.502-7.502C67.256,251.856,63.897,248.497,59.753,248.497z"/>
	</g>
</g>
<g>
	<g>
		<path d="M256,201.817c-8.151,0-15.991,1.768-23.3,5.254c-3.74,1.784-5.326,6.261-3.542,10.001
			c1.783,3.74,6.261,5.326,10.001,3.542c5.277-2.517,10.942-3.793,16.841-3.793c21.603,0,39.178,17.575,39.178,39.178
			S277.603,295.177,256,295.177s-39.178-17.575-39.178-39.178c0-1.393,0.073-2.796,0.218-4.168c0.435-4.12-2.553-7.813-6.673-8.249
			c-4.124-0.437-7.814,2.552-8.249,6.673c-0.2,1.894-0.301,3.826-0.301,5.744c0,29.876,24.307,54.183,54.183,54.183
			s54.183-24.307,54.183-54.183C310.183,226.122,285.876,201.817,256,201.817z"/>
	</g>
</g>
<g>
</g>
<g>
</g>
<g>
</g>
<g>
</g>
<g>
</g>
<g>
</g>
<g>
</g>
<g>
</g>
<g>
</g>
<g>
</g>
<g>
</g>
<g>
</g>
<g>
</g>
<g>
</g>
<g>
</g>
</svg>
