<?xml version="1.0" encoding="iso-8859-1"?>
<!-- Generator: Adobe Illustrator 19.0.0, SVG Export Plug-In . SVG Version: 6.00 Build 0)  -->
<svg version="1.1" id="Capa_1" xmlns="http://www.w3.org/2000/svg" xmlns:xlink="http://www.w3.org/1999/xlink" x="0px" y="0px"
	 viewBox="0 0 512 512" style="enable-background:new 0 0 512 512;" xml:space="preserve">
<g>
	<g>
		<path d="M498.312,127.424H391.396l-20.192-36.356c-2.411-4.344-6.996-7.042-11.965-7.042H235.411c-4.16,0-7.533,3.373-7.533,7.533
			s3.373,7.533,7.533,7.533h123.018l20.192,36.356c2.411,4.344,6.996,7.042,11.965,7.042h106.348v91.08
			c0,4.16,3.373,7.533,7.533,7.533c4.16,0,7.533-3.372,7.532-7.534v-92.458C511.999,133.564,505.859,127.424,498.312,127.424z"/>
	</g>
</g>
<g>
	<g>
		<path d="M504.467,273.577c-4.16,0-7.533,3.373-7.533,7.533v131.8H15.065V142.492h106.349c4.968,0,9.553-2.698,11.965-7.041
			l20.192-36.356h35.471c4.16,0,7.533-3.373,7.533-7.533c0-4.16-3.373-7.533-7.533-7.533H152.76c-4.968,0-9.553,2.698-11.965,7.041
			l-20.192,36.356H13.687C6.14,127.426,0,133.566,0,141.113v273.174c0,7.547,6.14,13.687,13.687,13.687h484.626
			c7.547,0,13.687-6.14,13.687-13.687V281.11C512,276.95,508.627,273.577,504.467,273.577z"/>
	</g>
</g>
<g>
	<g>
		<path d="M113.217,176.54c-5.653,0-11.305,2.423-11.305,7.806v180.873c0,5.384,5.653,8.075,11.305,8.075
			c5.653,0,11.304-2.692,11.304-8.075V184.346C124.521,178.963,118.869,176.54,113.217,176.54z"/>
	</g>
</g>
<g>
	<g>
		<path d="M179.967,223.911c0-20.725,16.688-27.992,36.605-27.992c23.417,0,31.222,10.228,37.413,10.228
			c6.19,0,9.689-8.074,9.689-12.381c0-12.112-27.993-17.764-47.103-17.764c-26.646,0-59.214,10.497-59.214,50.063
			c0,65.405,88.552,40.912,88.552,95.012c0,22.34-14.804,33.376-37.411,33.375c-31.761,0-37.952-21.802-46.026-21.802
			c-5.114,0-9.959,6.998-9.959,12.381c0,11.574,22.34,30.415,57.061,30.415c34.183,0,58.946-18.034,58.946-56.523
			C268.52,245.712,179.967,269.398,179.967,223.911z"/>
	</g>
</g>
<g>
	<g>
		<path d="M353.84,176.541c-32.568,0-57.869,15.88-57.869,58.676v81.016c0,42.796,25.301,58.676,57.869,58.676
			s58.138-15.88,58.138-58.676v-81.016C411.978,192.421,386.408,176.541,353.84,176.541z M389.367,316.233
			c0,26.108-13.458,38.22-35.528,38.22c-22.071,0-35.26-12.112-35.26-38.22v-81.016c0-26.108,13.189-38.22,35.26-38.22
			c22.07,0,35.528,12.112,35.528,38.22V316.233z"/>
	</g>
</g>
<g>
	<g>
		<path d="M291.614,120.63h-71.229c-4.16,0-7.533,3.373-7.533,7.533c0,4.16,3.373,7.533,7.533,7.533h71.229
			c4.16,0,7.533-3.373,7.533-7.533C299.147,124.003,295.774,120.63,291.614,120.63z"/>
	</g>
</g>
<g>
</g>
<g>
</g>
<g>
</g>
<g>
</g>
<g>
</g>
<g>
</g>
<g>
</g>
<g>
</g>
<g>
</g>
<g>
</g>
<g>
</g>
<g>
</g>
<g>
</g>
<g>
</g>
<g>
</g>
</svg>
