<?xml version="1.0" encoding="iso-8859-1"?>
<!-- Generator: Adobe Illustrator 19.0.0, SVG Export Plug-In . SVG Version: 6.00 Build 0)  -->
<svg version="1.1" id="Capa_1" xmlns="http://www.w3.org/2000/svg" xmlns:xlink="http://www.w3.org/1999/xlink" x="0px" y="0px"
	 viewBox="0 0 512 512" style="enable-background:new 0 0 512 512;" xml:space="preserve">
<g>
	<g>
		<path d="M437.02,74.981C388.667,26.629,324.38,0,256,0c-44.774,0-88.839,11.73-127.433,33.922
			c-37.431,21.524-69.072,52.414-91.503,89.329c-2.157,3.55-1.028,8.177,2.522,10.334c3.551,2.16,8.177,1.028,10.334-2.522
			c21.117-34.755,50.905-63.836,86.145-84.1c34.152-19.638,72.866-30.568,112.412-31.801v481.664
			c-61.542-1.874-119.128-26.713-162.859-70.446C40.108,380.871,15.044,320.362,15.044,256c0-29.188,5.16-57.712,15.336-84.778
			c1.462-3.889-0.505-8.226-4.394-9.688c-3.885-1.458-8.226,0.504-9.688,4.394C5.483,194.693,0,224.997,0,256
			c0,68.38,26.629,132.667,74.98,181.019C123.332,485.371,187.62,512,256,512c85.984,0,165.757-42.815,213.393-114.532
			c2.299-3.46,1.357-8.129-2.104-10.427c-3.459-2.3-8.129-1.357-10.427,2.104c-43.449,65.411-115.295,105.282-193.34,107.695V15.172
			c61.542,1.875,119.128,26.713,162.859,70.446c45.51,45.51,70.574,106.019,70.574,170.382c0,32.2-6.245,63.458-18.56,92.906
			c-1.604,3.832,0.205,8.239,4.037,9.842c0.949,0.397,1.932,0.585,2.899,0.585c2.942,0,5.736-1.737,6.942-4.622
			C505.364,323.416,512,290.205,512,256.001C512,187.62,485.371,123.333,437.02,74.981z"/>
	</g>
</g>
<g>
</g>
<g>
</g>
<g>
</g>
<g>
</g>
<g>
</g>
<g>
</g>
<g>
</g>
<g>
</g>
<g>
</g>
<g>
</g>
<g>
</g>
<g>
</g>
<g>
</g>
<g>
</g>
<g>
</g>
</svg>
