<?xml version="1.0" encoding="iso-8859-1"?>
<!-- Generator: Adobe Illustrator 19.0.0, SVG Export Plug-In . SVG Version: 6.00 Build 0)  -->
<svg version="1.1" id="Capa_1" xmlns="http://www.w3.org/2000/svg" xmlns:xlink="http://www.w3.org/1999/xlink" x="0px" y="0px"
	 viewBox="0 0 511.999 511.999" style="enable-background:new 0 0 511.999 511.999;" xml:space="preserve">
<g>
	<g>
		<path d="M509.749,427.656L386.69,256.019c-2.127-2.966-5.379-4.667-8.922-4.667c-3.543,0-6.795,1.702-8.921,4.668l-61.598,85.914
			l-51.834-72.295c-2.413-3.366-7.099-4.138-10.465-1.725c-3.366,2.414-4.139,7.099-1.725,10.465l109.798,153.141h-66.067H16.284
			l168.368-234.832l31.242,43.575c2.415,3.367,7.099,4.139,10.465,1.725c3.366-2.414,4.139-7.099,1.725-10.465l-33.386-46.565
			c-2.405-3.355-6.067-5.28-10.046-5.28c-3.979,0-7.641,1.924-10.047,5.28L2.592,424.874c-3.033,4.231-3.439,9.992-1.034,14.677
			c2.208,4.299,6.453,6.97,11.08,6.97h488.187c4.114,0,7.879-2.355,9.825-6.146C512.735,436.32,512.38,431.326,509.749,427.656z
			 M369.216,431.52c-0.254-2.371-1.089-4.675-2.502-6.646l-50.238-70.068l61.291-85.486L494.061,431.52H369.216z"/>
	</g>
</g>
<g>
	<g>
		<path d="M449.379,114.503h-1.315c-5.182-28.116-29.633-49.025-57.846-49.025s-52.664,20.909-57.846,49.025h-1.315
			c-21.038,0-38.153,17.472-38.153,38.947c-0.002,21.475,17.115,38.947,38.152,38.947c4.142,0,7.5-3.358,7.5-7.5s-3.358-7.5-7.5-7.5
			c-12.766,0-23.153-10.742-23.153-23.947s10.386-23.947,23.153-23.947h3.804c5.972,0,11.116-4.496,11.965-10.457
			c3.137-21.987,21.792-38.567,43.393-38.567c21.601,0,40.254,16.581,43.392,38.567c0.851,5.961,5.995,10.457,11.966,10.457h3.803
			c12.767,0,23.154,10.742,23.154,23.947s-10.386,23.947-23.154,23.947h-71.611c-4.142,0-7.5,3.358-7.5,7.5s3.358,7.5,7.5,7.5
			h71.611c21.039,0,38.154-17.472,38.154-38.947C487.533,131.975,470.417,114.503,449.379,114.503z"/>
	</g>
</g>
<g>
</g>
<g>
</g>
<g>
</g>
<g>
</g>
<g>
</g>
<g>
</g>
<g>
</g>
<g>
</g>
<g>
</g>
<g>
</g>
<g>
</g>
<g>
</g>
<g>
</g>
<g>
</g>
<g>
</g>
</svg>
