<?xml version="1.0" encoding="iso-8859-1"?>
<!-- Generator: Adobe Illustrator 19.0.0, SVG Export Plug-In . SVG Version: 6.00 Build 0)  -->
<svg version="1.1" id="Capa_1" xmlns="http://www.w3.org/2000/svg" xmlns:xlink="http://www.w3.org/1999/xlink" x="0px" y="0px"
	 viewBox="0 0 512 512" style="enable-background:new 0 0 512 512;" xml:space="preserve">
<g>
	<g>
		<path d="M469.574,113.428c-26.909-40.623-64.566-72.608-108.902-92.496c-9.349-4.193-20.013-4.071-29.257,0.333
			c-9.206,4.387-15.994,12.545-18.633,22.392l-0.021,0.078c-4.4,16.552,3.8,33.679,19.498,40.725
			c66.921,30.039,110.163,96.832,110.163,170.164c0,49.261-19.034,95.717-53.598,130.809
			c-34.524,35.053-80.605,54.796-129.752,55.589c-48.557,0.768-94.717-16.839-130.041-49.621c-3.024-2.806-7.751-2.63-10.558,0.394
			c-2.806,3.024-2.63,7.751,0.394,10.558c38.162,35.415,88.039,54.448,140.447,53.608c53.09-0.857,102.865-22.181,140.157-60.045
			c37.334-37.905,57.894-88.084,57.894-141.293c0-79.207-46.705-151.351-118.987-183.796c-8.965-4.024-13.664-13.772-11.192-23.193
			l0.019-0.068c1.497-5.634,5.375-10.304,10.639-12.812c5.279-2.514,11.371-2.584,16.712-0.187
			c41.751,18.729,77.216,48.852,102.561,87.114c25.983,39.226,39.795,84.936,39.939,132.187
			c0.198,64.374-24.831,125.04-70.475,170.824c-45.638,45.78-106.22,70.991-170.584,70.99c-64.389,0-124.923-25.075-170.453-70.605
			c-45.53-45.53-70.604-106.065-70.604-170.453c0-54.73,17.877-106.318,51.698-149.186c3.88-4.918,9.698-7.659,15.99-7.49
			c6.328,0.159,12.058,3.208,15.722,8.364c5.065,7.13,4.843,16.877-0.541,23.702C69.52,165.881,54.59,209.041,54.636,254.827
			c0.04,39.706,11.504,78.039,33.156,110.855c2.272,3.445,6.906,4.394,10.351,2.122c3.445-2.272,4.394-6.906,2.122-10.351
			c-20.037-30.372-30.648-65.864-30.685-102.641c-0.042-42.39,13.778-82.344,39.966-115.546c9.463-11.999,9.871-29.109,0.99-41.61
			c-6.415-9.03-16.449-14.368-27.528-14.647c-11.047-0.265-21.274,4.524-28.097,13.172C18.988,141.712,0,196.5,0,254.622
			c0,68.379,26.628,132.667,74.98,181.019c48.352,48.352,112.638,74.981,181.019,74.981c0.004,0-0.002,0,0.001,0
			c68.359,0,132.705-26.773,181.164-75.383c48.468-48.617,75.045-113.047,74.835-181.42
			C511.845,203.642,497.174,155.096,469.574,113.428z"/>
	</g>
</g>
<g>
	<g>
		<path d="M256,1.378c-22.373,0-40.576,18.203-40.576,40.577C215.423,64.33,233.626,82.531,256,82.531
			c22.373,0,40.576-18.203,40.576-40.576C296.576,19.581,278.374,1.378,256,1.378z M256,67.589c-14.134,0-25.634-11.5-25.634-25.634
			C230.366,27.82,241.865,16.321,256,16.321c14.134,0,25.634,11.499,25.634,25.635C281.634,56.09,270.135,67.589,256,67.589z"/>
	</g>
</g>
<g>
	<g>
		<path d="M308.722,224.8c-0.264-0.456-0.755-1.304-45.574-70.455c-2.245-3.464-6.87-4.449-10.333-2.206
			c-3.463,2.243-4.45,6.869-2.205,10.333c35.84,55.299,44.424,68.603,45.222,69.886c4.87,8.442,6.171,18.275,3.664,27.697
			c-2.514,9.446-8.557,17.348-17.014,22.249c-8.458,4.901-18.318,6.215-27.763,3.702c-9.422-2.508-17.306-8.525-22.21-16.947
			c-2.109-3.915-55.188-107.054-83.069-161.257l-0.331-0.579c-0.191-0.303-0.383-0.606-0.562-0.913
			c-7.639-13.182-3.131-30.122,10.051-37.762c6.386-3.701,13.829-4.693,20.962-2.795c7.132,1.899,13.098,6.461,16.799,12.845
			c0.181,0.312,0.348,0.63,0.515,0.946l0.155,0.293l28.815,44.434c2.244,3.464,6.872,4.45,10.333,2.204
			c3.463-2.244,4.449-6.871,2.204-10.333l-28.457-43.883c-0.206-0.385-0.415-0.77-0.637-1.153
			c-5.702-9.839-14.894-16.869-25.884-19.793c-10.989-2.927-22.46-1.397-32.298,4.306c-20.31,11.77-27.259,37.871-15.484,58.188
			c0.215,0.375,0.443,0.744,0.675,1.116c19.45,37.811,82.112,159.612,83.242,161.561c6.902,11.911,18.03,20.42,31.334,23.961
			c4.415,1.175,8.892,1.756,13.341,1.756c8.958,0,17.8-2.357,25.757-6.969c11.911-6.903,20.42-18.031,23.961-31.334
			C317.476,250.595,315.624,236.71,308.722,224.8z"/>
	</g>
</g>
<g>
</g>
<g>
</g>
<g>
</g>
<g>
</g>
<g>
</g>
<g>
</g>
<g>
</g>
<g>
</g>
<g>
</g>
<g>
</g>
<g>
</g>
<g>
</g>
<g>
</g>
<g>
</g>
<g>
</g>
</svg>
