<svg height="512pt" viewBox="0 0 512 512.001" width="512pt" xmlns="http://www.w3.org/2000/svg"><path d="m488 449.910156v-387.820312c13.757812-3.371094 24-15.804688 24-30.589844 0-17.367188-14.128906-31.5-31.5-31.5-14.785156 0-27.214844 10.242188-30.589844 24h-387.820312c-3.375-13.757812-15.804688-24-30.589844-24-17.367188 0-31.5 14.132812-31.5 31.5 0 14.785156 10.242188 27.214844 24 30.589844v9.746094c0 4.140624 3.359375 7.5 7.5 7.5s7.5-3.359376 7.5-7.5v-9.746094c11.355469-2.785156 20.304688-11.734375 23.089844-23.089844h387.820312c2.785156 11.355469 11.738282 20.304688 23.089844 23.089844v387.820312c-11.351562 2.785156-20.304688 11.738282-23.089844 23.089844h-321.578125c-4.140625 0-7.5 3.359375-7.5 7.5 0 4.144531 3.359375 7.5 7.5 7.5h321.578125c3.375 13.761719 15.804688 24 30.589844 24 17.371094 0 31.5-14.128906 31.5-31.5 0-14.785156-10.242188-27.214844-24-30.589844zm-456.5-401.910156c-9.097656 0-16.5-7.402344-16.5-16.5s7.402344-16.5 16.5-16.5 16.5 7.402344 16.5 16.5-7.402344 16.5-16.5 16.5zm432.5-16.5c0-9.097656 7.402344-16.5 16.5-16.5s16.5 7.402344 16.5 16.5-7.402344 16.5-16.5 16.5-16.5-7.402344-16.5-16.5zm16.5 465.5c-9.097656 0-16.5-7.402344-16.5-16.5s7.402344-16.5 16.5-16.5 16.5 7.402344 16.5 16.5-7.402344 16.5-16.5 16.5zm0 0"/><path d="m96 473h-33.910156c-2.785156-11.355469-11.734375-20.304688-23.089844-23.089844v-346.078125c0-4.140625-3.359375-7.5-7.5-7.5s-7.5 3.359375-7.5 7.5v346.078125c-13.757812 3.375-24 15.804688-24 30.589844 0 17.367188 14.132812 31.5 31.5 31.5 14.785156 0 27.214844-10.242188 30.589844-24h33.910156c4.140625 0 7.5-3.359375 7.5-7.5s-3.359375-7.5-7.5-7.5zm-64.5 24c-9.097656 0-16.5-7.402344-16.5-16.5s7.402344-16.5 16.5-16.5 16.5 7.402344 16.5 16.5-7.402344 16.5-16.5 16.5zm0 0"/><path d="m284.136719 126.070312 63.488281 202.050782c1.242188 3.953125 5.449219 6.144531 9.40625 4.90625 3.949219-1.242188 6.144531-5.449219 4.90625-9.402344l-63.492188-202.054688c-2.832031-9.011718-11.097656-15.066406-20.5625-15.066406h-43.761718c-9.464844 0-17.730469 6.054688-20.566406 15.070313l-84.519532 268.980469c-1.089844 3.476562-.457031 7.308593 1.703125 10.246093 2.160157 2.941407 5.628907 4.699219 9.285157 4.699219h57.007812c5.042969 0 9.453125-3.230469 10.984375-8.0625l17.320313-55.125h61.332031l17.324219 55.144531c1.523437 4.8125 5.9375 8.042969 10.980468 8.042969h57.007813c3.652343 0 7.125-1.757812 9.285156-4.699219 2.15625-2.9375 2.792969-6.769531 1.703125-10.25l-11.441406-36.40625c-1.242188-3.953125-5.453125-6.148437-9.402344-4.90625-3.953125 1.242188-6.148438 5.449219-4.90625 9.402344l10.007812 31.859375h-49.695312l-18.203125-57.9375c-.980469-3.125-3.878906-5.253906-7.15625-5.253906h-72.339844c-3.273437 0-6.171875 2.125-7.152343 5.253906l-18.207032 57.9375h-49.695312l83.089844-264.429688c.859374-2.730468 3.371093-4.570312 6.253906-4.570312h43.761718c2.878907 0 5.394532 1.839844 6.253907 4.570312zm0 0"/><path d="m256 216.910156c-4.171875 0-7.820312 2.667969-9.074219 6.652344l-15.398437 49c-.71875 2.277344-.304688 4.761719 1.105468 6.6875 1.414063 1.925781 3.660157 3.0625 6.046876 3.0625h34.640624c2.386719 0 4.632813-1.136719 6.046876-3.0625 1.410156-1.925781 1.824218-4.410156 1.105468-6.6875l-15.402344-49.007812c-1.25-3.976563-4.898437-6.644532-9.070312-6.644532zm-7.101562 50.402344 7.101562-22.59375 7.101562 22.59375zm0 0"/></svg>