<?xml version="1.0" encoding="iso-8859-1"?>
<!-- Generator: Adobe Illustrator 19.0.0, SVG Export Plug-In . SVG Version: 6.00 Build 0)  -->
<svg version="1.1" id="Capa_1" xmlns="http://www.w3.org/2000/svg" xmlns:xlink="http://www.w3.org/1999/xlink" x="0px" y="0px"
	 viewBox="0 0 512 512" style="enable-background:new 0 0 512 512;" xml:space="preserve">
<g>
	<g>
		<path d="M506.255,245.326l-60.771-40.098l32.58-65.111c1.929-3.854,1.794-8.384-0.361-12.116
			c-2.155-3.733-6.01-6.115-10.313-6.372l-72.678-4.34l-0.646-10.822c-0.249-4.165-3.826-7.336-7.991-7.09
			c-4.165,0.249-7.339,3.827-7.09,7.991l0.538,9.014l-3.738-0.223c-17.122-14.687-36.962-26.285-58.651-33.938l-1.981-3.003
			L375.5,49.02l0.659,11.036c0.249,4.164,3.809,7.332,7.991,7.09c4.165-0.249,7.339-3.827,7.09-7.991l-0.869-14.546
			c-0.258-4.302-2.64-8.157-6.372-10.312c-3.732-2.155-8.263-2.29-12.116-0.361l-65.111,32.58L266.674,5.745
			C264.301,2.148,260.31,0,256,0s-8.301,2.148-10.674,5.745l-40.098,60.771l-65.111-32.58c-3.854-1.929-8.384-1.794-12.116,0.361
			c-3.733,2.155-6.115,6.01-6.372,10.312l-4.34,72.679l-72.679,4.34c-4.302,0.258-8.157,2.64-10.312,6.372
			c-2.155,3.732-2.29,8.262-0.361,12.116l32.58,65.111l-12.664,8.356c-3.482,2.298-4.443,6.984-2.145,10.466
			c2.298,3.483,6.985,4.442,10.466,2.145l11.153-7.359l1.604,3.205c-2.06,11.011-3.15,22.359-3.15,33.959
			c0,11.6,1.089,22.948,3.15,33.959l-1.604,3.205L17.001,256l6.39-4.216c3.482-2.298,4.443-6.983,2.145-10.466
			c-2.3-3.482-6.984-4.442-10.466-2.145l-9.324,6.152C2.148,247.699,0,251.69,0,256s2.148,8.301,5.745,10.674l60.771,40.098
			l-32.58,65.111c-1.929,3.854-1.794,8.384,0.361,12.116c2.155,3.733,6.01,6.115,10.312,6.372l72.679,4.34l4.34,72.679
			c0.258,4.302,2.64,8.157,6.372,10.312c1.979,1.143,4.183,1.717,6.391,1.717c1.955,0,3.915-0.451,5.725-1.356l65.111-32.58
			l40.098,60.771C247.699,509.852,251.69,512,256,512s8.301-2.148,10.674-5.745l40.098-60.771l65.111,32.58
			c1.81,0.906,3.769,1.356,5.725,1.356c2.208,0,4.412-0.575,6.391-1.717c3.733-2.155,6.115-6.01,6.372-10.313l4.34-72.678
			l72.678-4.34c4.302-0.258,8.157-2.64,10.312-6.372c2.155-3.732,2.29-8.262,0.361-12.116l-32.58-65.111l60.771-40.098
			C509.852,264.301,512,260.31,512,256S509.852,247.699,506.255,245.326z M462.98,136.5l-30.197,60.348l-3.003-1.981
			c-7.652-21.689-19.251-41.529-33.938-58.651l-0.223-3.738L462.98,136.5z M256,17.001l37.164,56.324l-3.206,1.604
			c-11.011-2.06-22.359-3.15-33.959-3.15c-11.6,0-22.948,1.089-33.959,3.15l-3.205-1.604L256,17.001z M136.5,49.02l60.347,30.197
			l-1.981,3.003c-21.689,7.652-41.529,19.251-58.651,33.938l-3.738,0.223L136.5,49.02z M49.02,136.5l67.361-4.023l-0.223,3.738
			c-14.687,17.122-26.285,36.962-33.938,58.651l-3.003,1.981L49.02,136.5z M49.02,375.5l30.197-60.347l3.003,1.982
			c7.652,21.689,19.251,41.529,33.938,58.651l0.223,3.738L49.02,375.5z M136.5,462.98l-4.023-67.361l3.738,0.223
			c17.122,14.687,36.962,26.285,58.651,33.938l1.982,3.003L136.5,462.98z M256,494.999l-37.164-56.324l3.206-1.604
			c11.011,2.06,22.359,3.15,33.959,3.15c11.6,0,22.948-1.089,33.959-3.15l3.205,1.604L256,494.999z M375.5,462.98l-60.348-30.197
			l1.981-3.003c21.689-7.652,41.529-19.251,58.651-33.938l3.738-0.223L375.5,462.98z M256,425.112
			c-93.249,0-169.112-75.863-169.112-169.112S162.751,86.888,256,86.888S425.112,162.751,425.112,256S349.249,425.112,256,425.112z
			 M462.98,375.5l-67.361,4.023l0.223-3.738c14.687-17.122,26.285-36.962,33.938-58.651l3.003-1.982L462.98,375.5z M438.675,293.164
			l-1.604-3.206c2.06-11.011,3.15-22.359,3.15-33.959c0-11.6-1.089-22.948-3.15-33.959l1.604-3.205L494.999,256L438.675,293.164z"/>
	</g>
</g>
<g>
</g>
<g>
</g>
<g>
</g>
<g>
</g>
<g>
</g>
<g>
</g>
<g>
</g>
<g>
</g>
<g>
</g>
<g>
</g>
<g>
</g>
<g>
</g>
<g>
</g>
<g>
</g>
<g>
</g>
</svg>
