<?xml version="1.0" standalone="no"?>
<!DOCTYPE svg PUBLIC "-//W3C//DTD SVG 20010904//EN"
 "http://www.w3.org/TR/2001/REC-SVG-20010904/DTD/svg10.dtd">
<svg version="1.0" xmlns="http://www.w3.org/2000/svg"
 width="150.000000pt" height="150.000000pt" viewBox="0 0 150.000000 150.000000"
 preserveAspectRatio="xMidYMid meet">
<metadata>
Created by potrace 1.14, written by Peter Selinger 2001-2017
</metadata>
<g transform="translate(0.000000,150.000000) scale(0.100000,-0.100000)"
fill="#000000" stroke="none">
<path d="M335 1488 c-2 -7 -18 -69 -34 -138 -17 -69 -62 -257 -101 -418 l-70
-293 47 -57 c27 -31 53 -62 58 -68 14 -15 203 -232 221 -253 2 -2 2 6 -1 18
-9 47 13 15 54 -80 l44 -100 98 -49 98 -49 98 48 99 48 29 74 c16 41 37 90 47
109 14 29 17 31 18 12 0 -19 4 -17 38 20 20 24 39 45 42 48 3 3 32 37 65 75
33 39 65 75 71 80 6 6 33 37 61 70 l51 60 -107 429 c-106 428 -107 430 -126
410 -18 -18 -131 -118 -197 -174 -27 -23 -34 -24 -193 -23 l-165 1 -55 48
c-31 26 -68 59 -84 73 -83 78 -101 91 -106 79z m819 -251 c20 -75 36 -141 36
-146 0 -4 -38 12 -85 36 -47 24 -85 47 -85 50 0 8 93 203 96 200 1 -1 18 -64
38 -140z m-757 111 c6 -13 27 -58 46 -100 l36 -77 -91 -46 c-72 -37 -89 -43
-84 -28 18 59 64 242 65 261 1 19 17 14 28 -10z m239 -530 c60 -142 111 -258
114 -258 3 0 52 114 109 254 57 140 107 259 110 265 8 13 240 -117 253 -140 4
-8 25 -74 48 -147 48 -154 58 -118 -85 -285 l-90 -106 -5 72 -5 72 -91 -205
-90 -205 -79 -39 -78 -39 -79 39 -79 39 -90 205 c-50 113 -92 206 -93 207 -1
2 -2 -31 -1 -72 1 -60 -2 -72 -12 -63 -7 6 -57 63 -111 127 l-99 116 28 90
c15 50 35 116 44 147 l16 57 122 70 c67 38 125 67 128 63 4 -4 56 -123 115
-264z"/>
<path d="M437 680 c26 -38 50 -67 53 -65 3 1 26 6 51 9 l46 6 13 -75 c7 -41
16 -73 19 -70 4 2 7 41 6 86 0 62 -4 84 -15 90 -8 5 -61 27 -118 48 l-102 40
47 -69z"/>
<path d="M1055 730 c-22 -9 -73 -30 -112 -45 -55 -20 -73 -31 -74 -46 -2 -83
0 -161 4 -165 2 -3 7 15 11 38 4 24 11 60 17 81 10 38 11 39 45 32 20 -3 41
-8 48 -11 8 -3 28 16 48 44 33 46 62 93 56 91 -2 0 -21 -9 -43 -19z"/>
<path d="M738 224 c-4 -3 -56 -12 -80 -13 -14 -1 -18 -10 -18 -40 0 -37 1 -39
54 -58 53 -19 54 -19 102 -1 56 22 60 27 58 65 -1 25 -5 28 -57 39 -31 6 -58
10 -59 8z"/>
</g>
</svg>
